<?xml version="1.0" encoding="utf-8"?>
<!-- Generator: Adobe Illustrator 19.0.0, SVG Export Plug-In . SVG Version: 6.00 Build 0)  -->
<svg version="1.1" id="Layer_1" xmlns="http://www.w3.org/2000/svg" xmlns:xlink="http://www.w3.org/1999/xlink" x="0px" y="0px"
	 viewBox="0 0 841.9 595.3" style="enable-background:new 0 0 841.9 595.3;" xml:space="preserve">
<style type="text/css">
	.st0{opacity:0.48;}
	.st1{fill:none;stroke:#FFFFFF;stroke-linecap:round;stroke-linejoin:round;}
	.st2{fill:#FFFFFF;}
	.st3{fill:none;stroke:#F7F9F7;}
	.st4{fill:#F7F9F7;}
	.st5{fill:none;stroke:#FFFFFF;stroke-width:11;stroke-linecap:round;stroke-linejoin:round;}
	.st6{fill:none;stroke:#FFFFFF;stroke-width:9;}
	.st7{opacity:0.48;enable-background:new    ;}
	.st8{opacity:0.5;}
	.st9{fill:none;stroke:#175621;stroke-width:0.5;}
	.st10{fill:#175621;}
	.st11{opacity:0.23;}
	.st12{fill:none;stroke:#175621;}
</style>
<g id="XMLID_306_">
	<g id="XMLID_46_" class="st0">
		<polyline id="XMLID_54_" class="st1" points="-61,557.8 517.9,558.3 516.4,332.7 639.7,332.1 		"/>
		<g id="XMLID_47_">
			<polygon id="XMLID_48_" class="st2" points="632.7,340.8 631.2,339.3 638.9,332.1 631.2,325 632.6,323.4 642,332.1 			"/>
		</g>
	</g>
</g>
<g id="XMLID_303_">
	<g id="XMLID_21_">
		<path id="XMLID_38_" class="st3" d="M-61,436h368.9c6,0,11-5,11-11V260c0-6,4.9-11,11-11h445"/>
		<g id="XMLID_22_">
			<polygon id="XMLID_23_" class="st4" points="768.4,257.1 767.1,255.6 774.1,249.1 767.1,242.5 768.4,241.1 777,249.1 			"/>
		</g>
	</g>
</g>
<g id="XMLID_297_">
	<g id="XMLID_27_">
		<path id="XMLID_36_" class="st1" d="M-61,542.2h321.1c8.2,0,15-6.8,15-15V323.6c0-8.2,6.8-15,15-15h231.6"/>
		<g id="XMLID_34_">
			<polygon id="XMLID_35_" class="st2" points="516.6,314.9 515.5,313.8 521.1,308.6 515.5,303.4 516.6,302.3 523.4,308.6 			"/>
		</g>
	</g>
</g>
<g id="XMLID_294_">
	<g id="XMLID_50_" class="st0">
		<polyline id="XMLID_53_" class="st5" points="-61,64.2 541.7,64.2 540.2,289.8 713.7,289.8 		"/>
		<g id="XMLID_51_">
			<polygon id="XMLID_52_" class="st2" points="694.4,313.7 690.4,309.4 711.4,289.9 690.4,270.3 694.4,266 720,289.9 			"/>
		</g>
	</g>
</g>
<g id="XMLID_291_">
	<g id="XMLID_24_">
		<path id="XMLID_37_" class="st6" d="M0,34.4h425.2c6.1,0,11,5,11,11v165c0,6.1,5,11,11,11h219.3"/>
		<g id="XMLID_25_">
			<polygon id="XMLID_28_" class="st2" points="636.7,258.1 630.6,251.6 663.1,221.3 630.6,191.1 636.7,184.5 676.3,221.3 			"/>
		</g>
	</g>
</g>
<g id="XMLID_4_">
	<g id="XMLID_6_">
		<path id="XMLID_9_" class="st6" d="M-19,228.9h165c6.1,0,11,5,11,11v165c0,6.1,5,11,11,11h219.3"/>
		<g id="XMLID_7_">
			<polygon id="XMLID_8_" class="st2" points="357.5,452.6 351.4,446.1 383.9,415.8 351.4,385.6 357.5,379 397.1,415.8 			"/>
		</g>
	</g>
</g>
<g id="XMLID_288_">
	<g id="XMLID_13_" class="st7">
		<g>
			<path class="st5" d="M-61,117.7h404.2c8.2,0,15,6.8,15,15v203.6c0,8.2,6.8,15,15,15h181.2"/>
			<g>
				<polygon class="st2" points="530.4,381 525.4,375.7 551.6,351.3 525.4,326.9 530.4,321.6 562.3,351.3 				"/>
			</g>
		</g>
	</g>
</g>
<g id="XMLID_1_">
	<g id="XMLID_3_" class="st7">
		<g>
			<path class="st5" d="M21.6,260.1h404.2c8.2,0,15,6.8,15,15v203.6c0,8.2,6.8,15,15,15H637"/>
			<g>
				<polygon class="st2" points="613,523.4 608,518.1 634.2,493.7 608,469.3 613,464 644.9,493.7 				"/>
			</g>
		</g>
	</g>
</g>
<g id="XMLID_279_">
	<g id="XMLID_30_" class="st8">
		<polyline id="XMLID_33_" class="st9" points="675.4,421 519.3,421 519.3,464 -61,464 		"/>
		<g id="XMLID_31_">
			<polygon id="XMLID_32_" class="st10" points="672.8,417.7 672.2,418.3 675.1,421 672.2,423.7 672.8,424.2 676.3,421 			"/>
		</g>
	</g>
</g>
<g id="XMLID_274_">
	<g id="XMLID_40_" class="st11">
		<polyline id="XMLID_55_" class="st12" points="607.4,442.5 551.4,442.5 551.4,401.4 377.4,402.2 377.4,504.6 149.3,504.6 
			149.3,376.9 -61,376.9 		"/>
		<g id="XMLID_41_">
			<polygon id="XMLID_42_" class="st10" points="600.9,434.5 599.6,435.9 606.6,442.5 599.6,449.1 600.9,450.5 609.5,442.5 			"/>
		</g>
	</g>
</g>
</svg>
